<svg width="250" height="84" viewBox="0 0 250 84" fill="none" xmlns="http://www.w3.org/2000/svg">
<path d="M109.56 33.4596C109.56 34.3765 110.727 34.7351 114.997 34.7351C119.697 34.7351 120.289 34.4294 120.289 33.8534C120.289 33.2421 119.967 32.9364 114.316 32.7572C106.692 32.5044 104.663 31.2466 104.663 28.4605C104.663 25.4922 107.355 23.9463 114.639 23.9463C122.389 23.9463 124.829 24.9161 124.829 28.0461C124.829 28.3165 124.829 28.5868 124.811 28.8925C124.274 28.8572 123.321 28.8396 122.407 28.8396C121.457 28.8396 120.504 28.8572 119.967 28.8925V28.5516C119.967 27.6346 119.322 27.329 114.566 27.329C110.188 27.329 109.543 27.5994 109.543 28.1372C109.543 28.675 109.883 28.9101 115.894 29.2158C123.017 29.5743 125.204 30.6176 125.204 33.6388C125.204 36.7864 122.712 38.297 115.049 38.297C107.226 38.297 104.555 36.9833 104.555 34.2501C104.555 33.9268 104.572 33.5859 104.628 33.2244C105.256 33.295 106.206 33.3508 107.103 33.3508C108.018 33.3508 108.88 33.3332 109.56 33.2979V33.4596Z" fill="white"/>
<path d="M148.742 37.8651C148.812 35.9401 148.868 34.071 148.885 31.8403C148.885 30.9234 148.959 29.933 149.011 28.9808L148.885 28.9455C148.437 29.8448 147.935 30.7794 147.325 31.5699L142.59 37.8622H140.132L134.822 30.7764C134.23 29.9859 133.711 29.0513 133.262 28.1873L133.136 28.2225C133.189 29.1571 133.262 30.0917 133.28 31.1174C133.297 33.636 133.353 35.7373 133.458 37.8592H128.649C128.758 35.9166 128.793 33.9563 128.793 31.0997C128.793 28.152 128.758 26.1359 128.702 24.3755H135.916C136.904 25.8332 138.373 28.0256 140.22 30.7059C140.704 31.3907 141.226 32.1636 141.727 32.9542H141.836C142.32 32.146 142.786 31.373 143.235 30.7059C144.956 28.1344 146.572 25.7979 147.539 24.3755H153.908C153.855 26.1388 153.8 28.152 153.8 31.0997C153.8 33.9593 153.817 35.9195 153.943 37.8592H148.742V37.8651Z" fill="white"/>
<path d="M174.66 37.8648C174.499 37.4681 174.068 36.5894 173.476 35.4902C171.611 35.4726 169.725 35.4726 168.291 35.4726C166.98 35.4726 165.063 35.4726 163.251 35.4902C162.641 36.5159 162.157 37.377 161.922 37.8648H156.02C158.585 34.3058 163.556 26.7528 164.72 24.3782H172.182C173.402 26.7528 178.373 34.2147 181.044 37.8648H174.66ZM167.18 29.0364C166.57 30.0062 165.869 31.1406 165.189 32.2721C166.318 32.2897 167.45 32.2897 168.312 32.2897C169.244 32.2897 170.464 32.2897 171.684 32.2721C171.021 31.12 170.32 29.9709 169.693 28.9981C169.136 28.1547 168.743 27.4523 168.438 26.8939L167.18 29.0364Z" fill="white"/>
<path d="M198.409 32.3458C201.55 32.6514 202.984 33.154 203.558 35.2053C203.881 36.375 204.168 37.3449 204.403 37.868H199.937C199.131 37.868 198.987 37.6887 198.538 35.9254C198.142 34.3442 197.55 34.0562 194.287 34.0562H187.865C187.9 35.5845 187.973 36.8982 188.079 37.868H182.947C182.982 35.9078 183.018 34.021 183.018 31.1261C183.018 28.2666 183 26.324 182.947 24.3843H196.295C201.157 24.3843 203.435 25.6598 203.435 28.393C203.435 30.7118 201.928 31.8991 198.412 32.2782V32.3458H198.409ZM194.732 30.6912C197.621 30.6912 198.662 30.2063 198.662 29.2158C198.662 28.1902 197.638 27.8493 194.785 27.8493C193.421 27.8493 189.601 27.8669 187.788 27.9227C187.788 28.8397 187.788 29.7566 187.806 30.6383C189.099 30.6912 191.844 30.6912 194.732 30.6912Z" fill="white"/>
<path d="M224.545 24.3782C224.51 24.9013 224.51 25.6919 224.51 26.3913C224.51 27.0761 224.51 27.9196 224.545 28.4956C222.053 28.4251 219.575 28.4251 217.422 28.4251C217.422 32.9392 217.44 36.8392 217.493 37.8825C216.83 37.8296 215.716 37.8296 214.962 37.8296C214.209 37.8296 213.15 37.8296 212.432 37.8825C212.484 36.8392 212.523 32.9569 212.523 28.4251C210.37 28.4251 207.892 28.4251 205.4 28.4956C205.417 27.9196 205.418 27.0937 205.418 26.3913C205.418 25.6889 205.417 24.916 205.4 24.3782H224.545Z" fill="white"/>
<path d="M115.929 60.0508C107.569 60.0508 104.141 57.0649 104.141 52.6594C104.141 48.0747 107.927 45.3416 115.929 45.3416C123.931 45.3416 127.717 48.0747 127.717 52.6594C127.717 57.0649 124.289 60.0508 115.929 60.0508ZM122.676 52.68C122.676 50.467 120.937 49.2444 115.929 49.2444C110.924 49.2444 109.182 50.467 109.182 52.68C109.182 54.8548 110.903 56.1509 115.929 56.1509C120.973 56.1479 122.676 54.8548 122.676 52.68Z" fill="white"/>
<path d="M146.407 53.9203C149.548 54.2259 150.982 54.7285 151.557 56.7798C151.879 57.9495 152.166 58.9193 152.401 59.4425H147.935C147.129 59.4425 146.985 59.2632 146.536 57.4999C146.141 55.9187 145.548 55.6307 142.285 55.6307H135.863C135.898 57.1589 135.971 58.4726 136.077 59.4425H130.945C130.981 57.4822 131.016 55.5954 131.016 52.7006C131.016 49.841 130.998 47.8984 130.945 45.9587H144.293C149.155 45.9587 151.433 47.2342 151.433 49.9674C151.433 52.2862 149.926 53.4735 146.41 53.8527V53.9203H146.407ZM142.73 52.2656C145.619 52.2656 146.66 51.7807 146.66 50.7903C146.66 49.7646 145.636 49.4237 142.783 49.4237C141.42 49.4237 137.599 49.4414 135.787 49.4972C135.787 50.4141 135.787 51.3311 135.804 52.2127C137.094 52.2656 139.842 52.2656 142.73 52.2656Z" fill="white"/>
<path d="M171.52 59.4395C171.358 59.0428 170.927 58.1641 170.335 57.0649C168.47 57.0473 166.585 57.0473 165.151 57.0473C163.84 57.0473 161.922 57.0473 160.11 57.0649C159.5 58.0906 159.016 58.9517 158.782 59.4395H152.879C155.445 55.8805 160.415 48.3275 161.579 45.9529H169.042C170.262 48.3275 175.232 55.7894 177.903 59.4395H171.52ZM164.039 50.6111C163.429 51.5809 162.729 52.7153 162.048 53.8468C163.177 53.8644 164.309 53.8644 165.171 53.8644C166.104 53.8644 167.323 53.8644 168.543 53.8468C167.881 52.6947 167.18 51.5456 166.552 50.5729C165.995 49.7294 165.602 49.027 165.297 48.4686L164.039 50.6111Z" fill="white"/>
<path d="M201.406 45.9529C201.353 47.6075 201.335 49.8176 201.335 52.6771C201.335 55.6454 201.335 57.6409 201.371 59.4366H196.257C195.198 58.2317 189.618 54.4199 186.533 52.2627C185.78 51.722 185.008 51.1841 184.381 50.6081C184.451 51.6867 184.472 52.7653 184.507 53.8615C184.525 56.6476 184.542 58.6078 184.598 59.4366H179.985C179.985 57.6204 180.038 55.5719 180.038 52.6947C180.038 49.8352 180.038 47.7868 179.985 45.9529H185.835C186.498 46.8169 192.653 51.2047 195.398 53.0915C196.043 53.5235 196.691 53.8644 197.175 54.3317C197.104 53.3442 197.066 52.3891 197.066 51.6514C197.066 49.1534 197.013 46.9051 196.94 45.95H201.406V45.9529Z" fill="white"/>
<path d="M216.581 59.8715C209.027 59.8715 204.631 57.6967 204.631 52.6065C204.631 47.2488 209.206 45.5208 216.311 45.5208C223.093 45.5208 227.289 46.6346 227.289 50.6638C227.289 50.7902 227.289 50.9342 227.272 51.0606C226.735 51.0253 225.782 51.0077 224.867 51.0077C223.882 51.0077 222.947 51.0253 222.392 51.0606C222.392 50.9871 222.41 50.9166 222.41 50.8461C222.41 49.5882 220.706 49.1915 216.293 49.1915C211.628 49.1915 209.693 50.1437 209.693 52.6976C209.693 55.0164 211.505 56.2566 216.581 56.2566C220.366 56.2566 222.035 55.6806 222.518 54.458C220.026 54.458 216.668 54.4756 214.446 54.5315C214.463 54.2611 214.463 53.685 214.463 53.4176C214.463 52.9327 214.463 52.5007 214.446 52.1598C217.352 52.2127 220.331 52.195 222.501 52.195C223.829 52.195 225.533 52.2127 227.31 52.1598C227.632 57.0119 226.413 59.8715 216.581 59.8715Z" fill="white"/>
<path d="M250 45.9529C249.983 46.3496 249.965 46.9786 249.965 47.534C249.965 48.11 249.965 48.7566 250 49.1357C246.268 49.1181 239.523 49.1005 236.169 49.1005V51.1694C240.045 51.1694 246.807 51.1694 249.804 51.1165C249.786 51.8189 249.769 53.2561 249.786 54.0114C246.845 53.9761 240.007 53.9408 236.169 53.9408V56.0451C239.523 56.0451 246.502 56.0275 250 56.0098C249.965 56.4419 249.965 57.1237 249.965 57.7556C249.965 58.3316 249.965 58.9958 250 59.4454H231.037C231.11 57.6115 231.11 55.5808 231.11 52.7036C231.11 49.844 231.11 47.775 231.037 45.9617H250V45.9529Z" fill="white"/>
<path d="M22.2448 77.1522C21.239 77.1522 20.2918 77.0376 19.4092 76.8024C16.3801 75.9972 14.2747 73.7959 13.31 70.4279C5.63029 64.509 1.06468 56.1448 0.454764 46.8637C-0.213803 36.7304 3.79467 26.7822 11.7354 18.85L12.2602 18.3269L12.4567 19.044C15.5092 30.1531 31.3379 49.3941 47.7412 61.9374L48.1341 62.2372L47.7823 62.5869C38.5308 71.8269 29.08 77.1522 22.2448 77.1522ZM11.8351 19.9845C4.41045 27.6491 0.680552 37.1477 1.31686 46.8079C1.91505 55.8833 6.40149 64.0593 13.9463 69.8284L14.0636 69.9166L14.1017 70.0576C14.9756 73.2346 16.8347 75.2213 19.6321 75.9649C20.459 76.1853 21.3504 76.294 22.2917 76.294C28.7867 76.294 37.8447 71.1891 46.8234 62.3224C30.7778 49.9408 15.3538 31.2493 11.8351 19.9845Z" fill="#FF3300"/>
<path d="M20.0894 76.9084C11.7147 70.5045 3.62152 60.6386 2.0498 54.9136L2.88258 54.6843C4.41325 60.2536 12.3686 69.9138 20.6143 76.2207L20.0894 76.9084Z" fill="#FF3300"/>
<path d="M32.2145 74.078C17.9312 63.157 4.13472 46.3494 1.45752 36.6128L2.2903 36.3835C4.92351 45.9644 18.5822 62.5663 32.7365 73.3903L32.2145 74.078Z" fill="#FF3300"/>
<path d="M13.5213 70.5718C9.07593 68.738 6.25798 65.4258 5.37829 60.9969C3.76259 52.8678 8.71526 42.1055 18.6265 32.2073L19.2364 32.8215C9.53044 42.514 4.66867 52.9824 6.22573 60.8264C7.04677 64.9585 9.68292 68.0532 13.8497 69.7725L13.5213 70.5718Z" fill="#FF3300"/>
<path d="M12.1486 71.239C11.914 71.239 11.7205 71.1626 11.5768 70.9774C11.2806 70.5924 10.7851 69.9459 16.377 63.4803C19.9573 59.3423 25.1329 53.8759 31.3406 47.6777L31.9505 48.292C18.1276 62.0931 12.7673 68.8614 12.3304 70.3456C12.5122 70.2927 12.8553 70.1575 13.4681 69.7989L13.9021 70.5484C13.2629 70.9187 12.6266 71.239 12.1486 71.239Z" fill="#FF3300"/>
<path d="M38.7448 78.6775C34.2847 78.6775 29.8628 78.0427 25.6725 76.7584C23.356 77.261 21.2447 77.2904 19.4091 76.8025C16.339 75.9855 14.216 73.7343 13.2689 70.2869L12.9287 69.0497L13.9462 69.8285C17.4943 72.5411 21.4911 74.5513 25.7312 75.8767C31.889 74.469 39.5717 69.564 47.1722 61.9757L47.4391 61.7083L47.7382 61.9375C54.6291 67.204 59.573 69.8402 63.0624 71.0775C66.0857 69.2524 68.9153 67.0659 71.4606 64.5237L71.9855 64.0006L72.1819 64.7177C73.4516 69.3406 72.2113 71.3303 70.9445 72.1855C69.2819 73.3111 66.5988 73.2259 63.1504 72.0297C55.717 76.4234 47.1576 78.6775 38.7448 78.6775ZM27.3117 76.3323C38.6334 79.3829 51.4798 77.7018 62.1065 71.6388C58.0599 70.0489 53.075 67.0718 47.5183 62.8515C40.4661 69.8343 33.3171 74.5337 27.3117 76.3323ZM14.5298 71.3303C15.5179 73.7696 17.2275 75.3272 19.629 75.9649C20.9251 76.3088 22.3766 76.3793 23.9483 76.1883C20.6084 75.001 17.4357 73.3846 14.5298 71.3303ZM64.1415 71.4302C68.2116 72.6469 69.9798 71.7975 70.4665 71.4654C72.1409 70.331 72.0294 67.8153 71.5339 65.664C69.2613 67.8594 66.7777 69.7814 64.1415 71.4302Z" fill="#FF3300"/>
<path d="M30.6926 82.1688C28.3262 82.1688 24.5523 80.3202 20.0894 76.9082L20.6142 76.2205C26.9627 81.0726 30.6251 81.8397 31.8333 81.0226C32.669 80.4554 32.493 79.0477 32.1939 77.9662L33.0267 77.7369C33.7011 80.1939 33.012 81.2695 32.3171 81.7397C31.8919 82.0277 31.3465 82.1688 30.6926 82.1688Z" fill="#FF3300"/>
<path d="M50.1337 83.0271C46.181 83.0271 39.8002 79.8795 32.2114 74.0781L32.7363 73.3904C41.7796 80.3056 49.4564 83.5355 52.289 81.6164C53.8724 80.5466 53.5674 77.9986 53.0308 76.0501L53.8636 75.8209C54.9691 79.8472 53.8812 81.5841 52.7728 82.3335C52.0866 82.7978 51.1981 83.0271 50.1337 83.0271Z" fill="#FF3300"/>
<path d="M36.5163 82.892C35.6249 82.892 34.7335 82.8509 33.8479 82.7686C25.5378 81.9927 18.251 77.6049 13.3306 70.4163L14.0431 69.9255C18.8169 76.8996 25.8809 81.1522 33.93 81.9045C43.4425 82.795 53.4856 78.7188 61.4908 70.7279L62.1008 71.3421C54.6556 78.7746 45.4658 82.892 36.5163 82.892Z" fill="#FF3300"/>
<path d="M43.416 83.5532C43.2548 83.5532 43.0935 83.5532 42.9322 83.5503C31.7953 83.418 21.2976 78.7716 13.3716 70.4692L13.9962 69.8696C21.758 78.0016 32.0387 82.5511 42.941 82.6833C43.0993 82.6862 43.2577 82.6862 43.416 82.6862C53.5618 82.6862 63.0566 78.7745 70.1998 71.6418L70.8097 72.256C63.5053 79.5534 53.7935 83.5532 43.416 83.5532Z" fill="#FF3300"/>
<path d="M38.745 78.6775C29.5904 78.6775 20.6058 76.006 13.4245 70.5161L13.3072 70.4279L13.2691 70.2869C10.1579 58.9662 20.3683 37.036 36.0268 21.3981L36.2936 21.1306L36.5927 21.3599C53.1251 34.0001 69.0915 53.4469 72.1851 64.7118L72.2526 64.9557L72.0737 65.135C63.1477 74.0487 50.7968 78.6775 38.745 78.6775ZM14.0638 69.9166C30.3088 82.2335 55.8873 79.8942 71.2849 64.7C68.0916 53.6232 52.5445 34.7348 36.3699 22.2797C21.1219 37.6355 11.1667 58.8868 14.0638 69.9166Z" fill="#FF3300"/>
<path d="M32.1941 77.9663C30.6634 72.397 22.7081 62.7368 14.4624 56.4299L14.9873 55.7422C23.362 62.1461 31.4552 72.012 33.0269 77.737L32.1941 77.9663Z" fill="#FF3300"/>
<path d="M53.0341 76.0499C50.4009 66.4691 36.7422 49.8672 22.5879 39.0432L23.1128 38.3555C37.3961 49.2765 51.1926 66.0841 53.8668 75.8207L53.0341 76.0499Z" fill="#FF3300"/>
<path d="M22.4269 72.1501C19.131 72.1501 16.1136 71.6416 13.5215 70.5719L13.8499 69.7725C26.3738 74.9391 49.1286 66.5926 64.576 51.1663L65.1859 51.7805C52.6854 64.2591 35.4112 72.1501 22.4269 72.1501Z" fill="#FF3300"/>
<path d="M13.9027 70.5454L13.4688 69.796C19.0988 66.5074 36.3232 51.2103 51.8615 35.6929L52.4714 36.3071C36.8891 51.8686 19.5855 67.2274 13.9027 70.5454Z" fill="#FF3300"/>
<path d="M14.4417 71.295L13.4242 70.5162C5.67414 64.5913 1.06748 56.1919 0.454629 46.8638C-0.208073 36.8068 3.73295 26.9292 11.5593 19.0294C10.3981 14.5798 11.6179 12.646 12.8612 11.8055C16.5911 9.28099 25.4643 12.8518 36.5924 21.3629L36.9854 21.6626L36.6335 22.0124C21.1714 37.4534 11.0637 59.0045 14.0987 70.0577L14.4417 71.295ZM15.905 11.9231C14.4154 11.9231 13.6412 12.3198 13.3421 12.5197C11.4743 13.7834 11.8291 16.7635 12.4536 19.0411L12.5211 19.285L12.3422 19.4643C4.58332 27.2172 0.665755 36.9273 1.31673 46.808C1.88853 55.4925 6.02309 63.354 12.9932 69.0732C10.8907 57.5438 20.755 36.8186 35.6746 21.7508C24.8661 13.5542 18.9223 11.9231 15.905 11.9231Z" fill="#FF3300"/>
<path d="M14.4622 56.43C8.11673 51.5779 4.45427 50.8079 3.24323 51.6278C2.40752 52.1951 2.58346 53.6028 2.88256 54.6843L2.04978 54.9136C1.37535 52.4566 2.06444 51.381 2.7594 50.9107C4.72405 49.5824 9.29552 51.3898 14.9871 55.7423L14.4622 56.43Z" fill="#FF3300"/>
<path d="M22.5878 39.0433C13.5446 32.1281 5.87365 28.8982 3.03517 30.8173C1.45173 31.8871 1.75669 34.4351 2.2933 36.3836L1.46052 36.6128C0.355042 32.5895 1.44293 30.8496 2.55134 30.1002C5.79448 27.9049 13.483 30.9907 23.1127 38.3556L22.5878 39.0433Z" fill="#FF3300"/>
<path d="M13.3305 70.4162C2.25225 54.2375 6.01441 28.3222 21.714 12.6431L22.3239 13.2573C6.9029 28.6543 3.18766 54.0759 14.0401 69.9283L13.3305 70.4162Z" fill="#FF3300"/>
<path d="M13.3715 70.472C-2.55973 53.7848 -2.72687 27.4316 12.9991 11.729L13.609 12.3432C-1.7856 27.7137 -1.61259 53.5233 13.9961 69.8724L13.3715 70.472Z" fill="#FF3300"/>
<path d="M47.5185 62.8545L47.2194 62.6252C30.687 49.985 14.7206 30.5353 11.6241 19.2733L11.5566 19.0294L11.7355 18.8501C27.4439 3.16516 53.7526 0.755251 70.3847 13.4719L70.5019 13.5601L70.5401 13.7012C73.6512 25.0219 63.4439 46.952 47.7853 62.587L47.5185 62.8545ZM12.5272 19.2851C15.7205 30.3619 31.2676 49.2503 47.4423 61.7054C62.6873 46.3525 72.6425 25.1012 69.7454 14.0715C53.5004 1.75448 27.9219 4.09386 12.5272 19.2851Z" fill="#FF3300"/>
<path d="M60.6994 45.6325C46.4161 34.7115 32.6196 17.9038 29.9453 8.16722L30.7781 7.93799C33.4113 17.5188 47.07 34.1208 61.2242 44.9448L60.6994 45.6325Z" fill="#FF3300"/>
<path d="M68.8218 28.2458C60.4471 21.8419 52.3539 11.976 50.7822 6.25096L51.615 6.02173C53.1457 11.591 61.101 21.2512 69.3467 27.5581L68.8218 28.2458Z" fill="#FF3300"/>
<path d="M19.2364 32.8218L18.6265 32.2076C34.2997 16.5579 57.4737 8.12908 70.2879 13.4162L69.9595 14.2156C57.4356 9.0519 34.6838 17.3955 19.2364 32.8218Z" fill="#FF3300"/>
<path d="M31.9507 48.2922L31.3408 47.678C46.9231 32.1194 64.2238 16.7607 69.9066 13.4426L70.3406 14.192C64.7105 17.4778 47.4891 32.7777 31.9507 48.2922Z" fill="#FF3300"/>
<path d="M67.9241 72.979C63.3703 72.979 55.9955 69.3377 47.2191 62.6252L46.8262 62.3255L47.178 61.9757C62.6401 46.5376 72.7478 24.9866 69.7099 13.9333L69.3698 12.696L70.3873 13.4749C78.1374 19.3997 82.7411 27.7991 83.3569 37.1302C84.0196 47.1871 80.0786 57.0619 72.2552 64.9617C73.4163 69.4112 72.1965 71.345 70.9532 72.1855C70.1615 72.7174 69.144 72.979 67.9241 72.979ZM48.134 62.2343C64.2734 74.472 69.5633 72.0738 70.4664 71.4655C72.3343 70.2017 71.9795 67.2217 71.3549 64.944L71.2875 64.7001L71.4664 64.5208C79.2282 56.7709 83.1428 47.0607 82.4948 37.1831C81.923 28.4986 77.7884 20.634 70.8183 14.9149C72.9208 26.4472 63.0565 47.1695 48.134 62.2343Z" fill="#FF3300"/>
<path d="M78.6181 54.5813C74.6653 54.5813 68.2846 51.4337 60.6958 45.6323L61.2207 44.9446C70.2639 51.8598 77.9407 55.0897 80.7733 53.1706C82.3568 52.1008 82.0518 49.5528 81.5152 47.6043L82.348 47.3751C83.4535 51.3984 82.3656 53.1383 81.2572 53.8877C80.571 54.355 79.6825 54.5813 78.6181 54.5813Z" fill="#FF3300"/>
<path d="M79.4245 33.5065C77.0552 33.5065 73.2843 31.6608 68.8213 28.2458L69.3462 27.5581C75.6917 32.4102 79.3571 33.1802 80.5652 32.3603C81.4009 31.7931 81.2249 30.3853 80.9259 29.3038L81.7586 29.0746C82.4331 31.5315 81.744 32.6071 81.049 33.0774C80.6238 33.3654 80.0784 33.5065 79.4245 33.5065Z" fill="#FF3300"/>
<path d="M62.0977 71.342L61.4878 70.7278C76.9059 55.3308 80.6211 29.9092 69.7686 14.0596L70.4812 13.5688C81.5565 29.7505 77.7973 55.6658 62.0977 71.342Z" fill="#FF3300"/>
<path d="M70.8124 72.2559L70.2025 71.6417C85.5972 56.2712 85.4212 30.4646 69.8125 14.1125L70.4371 13.5129C86.3684 30.206 86.5355 56.5563 70.8124 72.2559Z" fill="#FF3300"/>
<path d="M71.5487 65.6611L71.3523 64.944C68.2997 53.8349 52.4711 34.5939 36.0677 22.0506L35.6748 21.7479L36.0267 21.3981C46.6387 10.8004 57.5117 5.35462 64.3997 7.18557C67.4288 7.99083 69.5342 10.1921 70.5019 13.5601C78.1816 19.479 82.7443 27.8432 83.3571 37.1272C84.0257 47.2606 80.0172 57.2059 72.0765 65.135L71.5487 65.6611ZM36.9855 21.6656C53.0341 34.0472 68.4551 52.7387 71.9768 64.0036C79.3985 56.3418 83.1284 46.8462 82.4921 37.186C81.8939 28.1106 77.4075 19.9346 69.8597 14.1625L69.7424 14.0744L69.7043 13.9333C68.8305 10.7563 66.9714 8.76964 64.174 8.02609C57.6584 6.2892 47.2692 11.5116 36.9855 21.6656Z" fill="#FF3300"/>
<path d="M81.5184 47.6044C78.8852 38.0236 65.2265 21.4216 51.0723 10.5976L51.5972 9.90991C65.8804 20.8309 79.6769 37.6386 82.3512 47.3752L81.5184 47.6044Z" fill="#FF3300"/>
<path d="M80.929 29.3039C79.3983 23.7346 71.4429 14.0744 63.1973 7.76754L63.7221 7.07983C72.0968 13.4837 80.19 23.3497 81.7618 29.0747L80.929 29.3039Z" fill="#FF3300"/>
<path d="M65.1856 51.7776L64.5757 51.1634C74.2787 41.4738 79.1434 31.0054 77.5834 23.1614C76.7624 19.0293 74.1262 15.9347 69.9594 14.2154L70.2878 13.416C74.7332 15.2499 77.5512 18.562 78.4309 22.9939C80.0466 31.123 75.0939 41.8852 65.1856 51.7776Z" fill="#FF3300"/>
<path d="M52.4712 36.3072L51.8613 35.6929C65.6813 21.8918 71.0416 15.1264 71.4785 13.6423C71.2967 13.6952 70.9536 13.8304 70.3407 14.1889L69.9068 13.4395C70.8598 12.884 71.801 12.4461 72.2292 13.0045C72.5253 13.3925 73.0238 14.039 67.429 20.5046C63.8515 24.6485 58.6789 30.109 52.4712 36.3072Z" fill="#FF3300"/>
<path d="M36.3697 22.2798L36.0677 22.0505C29.1797 16.7811 24.2329 14.1478 20.7464 12.9105C17.7231 14.7356 14.8935 16.9221 12.3453 19.4643L11.8204 19.9874L11.6239 19.2703C10.3542 14.6474 11.5946 12.6578 12.8614 11.8025C14.524 10.6769 17.2071 10.7622 20.6584 11.9583C32.0387 5.237 46.0463 3.52068 58.1363 7.22959C60.4528 6.72703 62.567 6.69764 64.3997 7.1855C67.4698 8.00252 69.5928 10.2537 70.5399 13.7011L70.8801 14.9384L69.8626 14.1595C66.3145 11.4469 62.3177 9.43671 58.0776 8.11126C51.9198 9.519 44.2371 14.424 36.6395 22.0094L36.3697 22.2798ZM21.7052 12.3462C25.7518 13.9362 30.7367 16.9133 36.2935 21.1336C43.3427 14.1537 50.4917 9.45434 56.4971 7.65573C45.1754 4.60808 32.3319 6.2862 21.7052 12.3462ZM15.9051 11.923C14.4155 11.923 13.6414 12.3198 13.3423 12.5196C11.6679 13.654 11.7793 16.1698 12.272 18.321C14.5445 16.1286 17.0311 14.2036 19.6673 12.5578C18.0867 12.0847 16.8522 11.923 15.9051 11.923ZM59.8575 7.79974C63.2004 8.98706 66.3731 10.6035 69.279 12.6578C68.2909 10.2185 66.5813 8.66084 64.1798 8.02309C62.8807 7.67924 61.4292 7.60871 59.8575 7.79974Z" fill="#FF3300"/>
<path d="M51.0722 10.5975C42.0289 3.68227 34.3522 0.452403 31.5195 2.37151C29.9361 3.44422 30.2411 5.98931 30.7777 7.93781L29.9449 8.16705C28.8394 4.14368 29.9273 2.40384 31.0357 1.65442C34.2789 -0.540949 41.9644 2.54491 51.5971 9.90982L51.0722 10.5975Z" fill="#FF3300"/>
<path d="M63.1947 7.76726C56.8492 2.91512 53.1838 2.14512 51.9757 2.96508C51.1399 3.53229 51.3159 4.94003 51.615 6.02155L50.7822 6.25078C50.1078 3.79385 50.7969 2.71821 51.4918 2.24798C53.4535 0.919594 58.025 2.72409 63.7196 7.07955L63.1947 7.76726Z" fill="#FF3300"/>
<path d="M69.7686 14.0625C64.9918 7.08847 57.9279 2.83292 49.8787 2.08056C40.3634 1.19301 30.3231 5.26634 22.3238 13.2543L21.7139 12.6401C29.8979 4.46696 40.1933 0.305458 49.9608 1.21652C58.271 1.99239 65.5578 6.38019 70.4811 13.5688L69.7686 14.0625Z" fill="#FF3300"/>
<path d="M69.8125 14.1155C62.0478 5.98348 51.77 1.43404 40.8648 1.30179C30.5196 1.18424 20.8635 5.09887 13.6089 12.3433L12.999 11.7291C20.3034 4.43467 30.0152 0.434814 40.3897 0.434814C40.551 0.434814 40.7123 0.434814 40.8736 0.437753C52.0105 0.570004 62.5082 5.21643 70.4342 13.5189L69.8125 14.1155Z" fill="#FF3300"/>
<path d="M41.7708 84C41.0201 84 40.2313 83.9648 39.636 83.9236C38.6332 83.8531 37.2345 83.7062 35.3607 83.471C34.2553 83.3329 32.8829 83.0273 32.0414 82.8098C30.6602 82.4512 28.81 81.887 27.4347 81.4109C26.2442 80.9965 23.6579 79.915 21.4117 78.6277C20.3737 78.0341 17.6173 76.4529 14.7906 74.0254C13.3684 72.8057 11.2132 70.8425 8.89957 67.883C8.13717 66.9073 7.54778 66.055 7.54484 66.0492C6.94958 65.1881 6.94958 65.1881 6.04937 63.748C5.35148 62.6341 4.61547 61.1735 4.30171 60.5475C3.83254 59.6129 3.33991 58.5079 3.04082 57.7144C2.81796 57.1266 2.58631 56.4742 2.36638 55.8217C2.04383 54.9577 1.7594 54.076 1.51308 53.1797C1.18173 51.8807 0.744816 50.1702 0.565945 48.8624C0.398804 47.6457 0.214068 46.2556 0.123167 45.1888C0.0879789 44.7626 -0.0263812 43.2843 9.60752e-06 42.1264L0.00587423 41.9442C0.032265 40.8774 0.0645204 39.549 0.14076 38.5292C0.208204 37.6328 0.354819 36.4043 0.516096 35.3963C1.11136 31.6286 2.07315 28.9072 2.11127 28.7955C2.39571 27.9991 2.92352 26.5149 3.3663 25.4687C3.68886 24.7075 4.21374 23.5995 4.76795 22.5121C5.59192 20.8986 6.85282 18.8532 7.91138 17.4248C9.26318 15.5998 10.9932 13.5661 12.3216 12.2494C14.3302 10.2568 15.119 9.66024 17.7346 7.68235C18.6466 6.9917 19.9309 6.21877 20.8194 5.69564C21.6287 5.21954 22.7694 4.61118 23.7224 4.14977C24.6461 3.70306 25.9568 3.13879 27.0623 2.71558C27.6898 2.47459 28.4522 2.23066 29.1912 1.99261C29.5137 1.88975 29.8216 1.78983 30.1031 1.69578C31.1382 1.34899 32.5047 1.05804 33.704 0.811169C34.352 0.678918 35.1349 0.561361 35.8944 0.452621C36.214 0.405599 36.5249 0.361515 36.8034 0.317431C37.9558 0.135219 39.4777 0.0676239 40.6741 0.0264791C41.7004 -0.00878787 42.9026 2.88663e-05 43.7325 0.0499904C44.9347 0.120524 46.6003 0.279226 47.9785 0.452621C49.9343 0.69949 51.679 1.16384 53.5264 1.65464C54.9046 2.01906 56.7343 2.66562 58.0773 3.25634C59.3206 3.80592 60.2473 4.235 60.91 4.57592C61.7486 5.005 62.8658 5.63392 63.6927 6.13648C64.5519 6.65961 65.5342 7.30617 66.1969 7.78227C67.1851 8.49643 67.5194 8.73448 69.0002 9.96294C69.1615 10.0981 70.006 10.8123 71.1144 11.8879C71.9589 12.7108 72.6656 13.4808 73.0028 13.8541C73.4133 14.3037 74.3253 15.3676 74.9 16.117C75.8266 17.319 75.9938 17.5659 76.9174 18.9325C77.6124 19.9611 78.841 22.0713 79.5067 23.4761C80.0169 24.5546 80.8731 26.3621 81.574 28.4987C82.3334 30.8233 82.8583 32.8659 83.1339 34.5734C83.4125 36.3015 83.7263 38.2559 83.7878 41.0596C83.8523 44.1337 83.5796 46.5612 83.4125 47.7339C83.2395 48.9329 82.9228 51.1665 81.9727 54.3082C81.4009 56.2038 80.3717 58.6372 79.6093 60.3418C79.2574 61.1265 78.6973 62.1698 77.888 63.5335C77.5362 64.1301 77.0729 64.8178 76.6271 65.4819C76.4307 65.7729 76.243 66.055 76.0759 66.3107C75.4484 67.2747 74.4895 68.4503 73.8033 69.232L73.6772 69.376C72.8532 70.3135 71.8269 71.4803 70.9297 72.2855C70.7273 72.4678 70.5074 72.6676 70.2816 72.8733C69.6688 73.4347 68.9709 74.0695 68.3873 74.5456C67.578 75.2039 66.3875 76.1502 65.414 76.7674L64.7454 77.1965C64.0505 77.6432 63.2617 78.1516 62.6107 78.519C61.6049 79.0862 60.2912 79.7621 59.3382 80.1971C55.9807 81.7371 53.0778 82.4836 52.7611 82.5659C50.7847 83.0625 48.1925 83.5034 46.5739 83.7326C45.6942 83.856 44.5887 83.9031 43.6123 83.9442C43.2926 83.9589 42.9818 83.9707 42.6974 83.9854C42.41 83.9912 42.0933 84 41.7708 84ZM8.71484 66.1961C8.94355 66.5106 9.24558 66.9161 9.5828 67.3482C11.8495 70.2459 13.9637 72.1709 15.3565 73.3671C18.1217 75.7417 20.8253 77.2905 21.8428 77.8754C24.0391 79.1332 26.5609 80.1912 27.7191 80.5938C29.0739 81.0641 30.8978 81.6166 32.2584 81.9722C33.3316 82.2514 34.5925 82.5041 35.4663 82.6129C37.3254 82.8451 38.7065 82.992 39.6947 83.0596C40.5216 83.1154 41.7326 83.1625 42.6534 83.1125C42.9408 83.0978 43.2516 83.086 43.5771 83.0714C44.533 83.0302 45.618 82.9861 46.4537 82.8686C48.0518 82.6423 50.6058 82.2073 52.5499 81.7195C52.8608 81.6401 55.6904 80.9112 58.9805 79.4036C59.913 78.9774 61.2032 78.3162 62.1884 77.7578C62.8189 77.4022 63.596 76.9026 64.2821 76.4617L64.9565 76.0297C65.8949 75.4361 67.0561 74.5103 67.8478 73.8667C68.4137 73.4082 69.0999 72.7793 69.704 72.2268C69.9327 72.0181 70.1526 71.8153 70.3579 71.6331C71.217 70.8602 72.2257 69.7169 73.0351 68.7941L73.1611 68.6501C73.8297 67.8919 74.7563 66.7516 75.3604 65.8258C75.5305 65.5672 75.7211 65.2821 75.9175 64.9882C76.3574 64.3328 76.8119 63.6569 77.152 63.0809C77.9437 61.7466 78.4892 60.7327 78.8264 59.9774C79.58 58.2934 80.5946 55.8982 81.1517 54.0466C82.0812 50.9667 82.395 48.7772 82.5621 47.5987C82.7263 46.4525 82.9932 44.0778 82.9287 41.0655C82.87 38.3235 82.5621 36.4014 82.2894 34.7027C82.0226 33.0364 81.5094 31.0379 80.7617 28.7573C80.0785 26.6707 79.2398 24.8956 78.7355 23.8346C78.0874 22.4651 76.8881 20.4078 76.2196 19.4174C75.2988 18.0567 75.1346 17.8157 74.2226 16.6313C73.6596 15.9025 72.7711 14.8651 72.3724 14.4242C72.0381 14.0569 71.346 13.2986 70.5191 12.4933C69.4342 11.4383 68.6102 10.7447 68.4577 10.6154C66.9974 9.40455 66.6719 9.16944 65.6984 8.46704C65.0533 8.00269 64.0944 7.37082 63.2529 6.85945C62.4436 6.36571 61.3469 5.75148 60.5258 5.33122C59.8778 4.99912 58.9658 4.57592 57.7372 4.03222C56.4323 3.45619 54.6524 2.8302 53.3123 2.47459C51.4943 1.99261 49.776 1.53708 47.8758 1.29609C46.5152 1.12269 44.8702 0.966931 43.6856 0.896397C42.8792 0.849375 41.7092 0.840558 40.7063 0.872886C39.5334 0.911092 38.0438 0.978687 36.9383 1.15502C36.6568 1.19911 36.3431 1.24613 36.0205 1.29315C35.2757 1.40189 34.5045 1.51651 33.8799 1.64288C33.0325 1.81628 31.452 2.1425 30.3787 2.50104C30.0943 2.59509 29.7806 2.69501 29.458 2.80081C28.7308 3.03299 27.9801 3.27398 27.3761 3.50615C26.2911 3.92348 25.0038 4.47599 24.1007 4.91389C23.1799 5.36061 22.0363 5.96602 21.2593 6.42449C20.3913 6.93586 19.1333 7.6941 18.2595 8.35536C15.6791 10.3068 14.8991 10.8975 12.9315 12.849C11.6325 14.1391 9.93468 16.1288 8.60634 17.9245C7.57417 19.3175 6.3426 21.313 5.53914 22.8883C4.99373 23.961 4.47765 25.0454 4.16389 25.789C3.72991 26.8147 3.20796 28.2812 2.92646 29.0688C2.88833 29.1805 1.95293 31.8255 1.3694 35.5139C1.21692 36.4837 1.0703 37.7151 1.00286 38.5762C0.92662 39.5754 0.894364 40.8891 0.870906 41.9471L0.865041 42.1323C0.847447 42.8846 0.891432 43.9956 0.982333 45.1006C1.0791 46.235 1.29316 47.7956 1.42218 48.7301C1.59519 49.988 2.0233 51.672 2.33706 52.9034C2.34293 52.921 2.34586 52.9387 2.35172 52.9563C2.55992 53.6352 2.84728 54.5374 3.15811 55.4514C5.21072 60.9883 8.83213 65.8523 13.7496 69.667C13.8141 69.7169 13.8786 69.7669 13.9431 69.8168L13.4183 70.5046C11.697 69.1967 10.1253 67.7508 8.71484 66.1961Z" fill="#FF3300"/>
</svg>
