<svg width="60" height="80" viewBox="0 0 60 80" fill="none" xmlns="http://www.w3.org/2000/svg">
<path fill-rule="evenodd" clip-rule="evenodd" d="M29.8396 0C41.2661 0 51.5334 6.40002 56.667 16.7579C61.1382 25.8527 61.1382 35.8737 56.5014 44.2947C52.2786 52.1263 33.7312 75.1158 32.9032 76.1263L29.8396 80L26.6932 76.2105L26.5999 76.0959C24.2095 73.1591 6.9318 51.9318 3.095 44.2105C-0.38263 37.2211 -0.962255 28.8 1.52176 21.0526C4.08858 13.2211 9.30502 6.90528 16.4259 3.28423C20.6487 1.09476 25.1199 0 29.8396 0Z" fill="#E5CDB7"/>
<path d="M25.0994 33.0237C25.0994 33.5105 24.7104 33.8959 24.2421 33.8959C23.7739 33.8959 23.385 33.5106 23.385 33.0237C23.385 32.5366 23.7739 32.1514 24.2421 32.1514C24.7103 32.1514 25.0994 32.5367 25.0994 33.0237Z" stroke="#23242B"/>
<path d="M36.8166 33.0237C36.8166 33.5105 36.4277 33.8959 35.9594 33.8959C35.4911 33.8959 35.1023 33.5106 35.1023 33.0237C35.1023 32.5366 35.4912 32.1514 35.9594 32.1514C36.4276 32.1514 36.8166 32.5367 36.8166 33.0237Z" stroke="#23242B"/>
<path d="M21.5819 21.9527L21.5824 21.9521C22.6671 20.7976 24.1416 20.1305 25.5711 19.7542C26.9974 19.3786 28.3398 19.3028 29.1142 19.3028H29.8544H29.9777C29.9828 19.3028 29.9976 19.3021 30.0215 19.3009C30.2888 19.2879 31.6938 19.2192 33.4181 19.4842C35.3097 19.7749 37.4701 20.4532 38.8657 21.9506L38.8676 21.9526C40.6692 23.8639 41.8443 26.613 42.5679 29.1315C43.289 31.6409 43.5418 33.8489 43.5433 34.6391C43.4528 37.7503 42.2747 40.1922 40.1977 41.8664C38.1073 43.5513 35.0537 44.5003 31.1499 44.5003H29.2992C25.3953 44.5003 22.326 43.5512 20.2279 41.8659C18.1433 40.1915 16.9664 37.7503 16.9063 34.6414C16.9072 33.8218 17.1599 31.6118 17.8814 29.1083C18.6048 26.5985 19.7797 23.8644 21.5819 21.9527Z" stroke="#23242B"/>
<path d="M39.5367 21.8099L39.5361 21.8093C38.1478 20.5178 37.9999 18.5831 39.0121 17.4571L39.0208 17.4475L39.0289 17.4374C39.4608 16.9038 40.282 16.5605 41.2466 16.5H41.4165C42.2741 16.5 43.0836 16.8245 43.6778 17.3118C44.2756 17.8725 44.5363 18.7071 44.4952 19.5947C44.4536 20.4902 44.1056 21.3745 43.5741 21.9658L43.5725 21.9676C43.1086 22.4886 42.5536 22.7461 41.8737 22.7995C41.1255 22.849 40.269 22.4934 39.5367 21.8099Z" stroke="#23242B"/>
<path d="M21.06 17.9188L21.0598 17.9189L21.0685 17.929C22.0326 19.0579 21.879 21.0025 20.5488 22.2945C19.8246 22.9689 18.9674 23.333 18.0854 23.2806L18.0707 23.2797L18.0559 23.2797C17.4275 23.2795 16.8725 22.9916 16.384 22.5008C15.8602 21.9132 15.5294 21.037 15.5019 20.1462C15.4743 19.2542 15.7509 18.4111 16.3591 17.8468C16.9425 17.311 17.7456 16.9814 18.6727 16.9814H18.8424C19.8067 17.0417 20.6281 17.385 21.06 17.9188Z" stroke="#23242B"/>
<path d="M30.4756 36.9435C32.5707 36.9435 33.0945 35.6595 33.0945 35.0176H27.3804C27.3804 35.9805 27.8566 36.9435 30.4756 36.9435ZM30.4756 36.9435V38.1471M30.4756 38.1471C30.8724 39.0298 32.1422 40.5545 34.0469 39.5915M30.4756 38.1471C30.0787 39.0298 28.8566 40.5545 27.1423 39.5915" stroke="#23242B"/>
</svg>
