<svg width="90" height="120" viewBox="0 0 90 120" fill="none" xmlns="http://www.w3.org/2000/svg">
<path fill-rule="evenodd" clip-rule="evenodd" d="M44.7594 0C61.8991 0 77.3 9.60003 85.0005 25.1369C91.7073 38.779 91.7073 53.8105 84.7521 66.4421C78.4178 78.1894 50.5968 112.674 49.3548 114.19L44.7594 120L40.0398 114.316L39.8999 114.144C36.3142 109.739 10.3977 77.8977 4.64249 66.3158C-0.573945 55.8316 -1.44338 43.2 2.28265 31.5789C6.13287 19.8316 13.9575 10.3579 24.6388 4.92635C30.9731 1.64214 37.6799 0 44.7594 0Z" fill="#23242B"/>
<path d="M36.2759 25.417H31V67.3462H36.2759V25.417Z" fill="#E5CDB7"/>
<path d="M43.6785 20.4941H38.4026V71.5051H43.6785V20.4941Z" fill="#E5CDB7"/>
<path d="M51.1675 20.4941H45.8916V71.5051H51.1675V20.4941Z" fill="#E5CDB7"/>
<path d="M58.5698 25.417H53.2939V67.3462H58.5698V25.417Z" fill="#E5CDB7"/>
</svg>
