<svg width="60" height="80" viewBox="0 0 60 80" fill="none" xmlns="http://www.w3.org/2000/svg">
<path fill-rule="evenodd" clip-rule="evenodd" d="M29.8396 0C41.2661 0 51.5334 6.40002 56.667 16.7579C61.1382 25.8527 61.1382 35.8737 56.5014 44.2947C52.2786 52.1263 33.7312 75.1158 32.9032 76.1263L29.8396 80L26.6932 76.2105L26.5999 76.0959C24.2095 73.1591 6.9318 51.9318 3.095 44.2105C-0.38263 37.2211 -0.962255 28.8 1.52176 21.0526C4.08858 13.2211 9.30502 6.90528 16.4259 3.28423C20.6487 1.09476 25.1199 0 29.8396 0Z" fill="#E5CDB7"/>
<path d="M37.125 35.125V35.125C38.1605 35.125 39 34.2864 39 33.2508C39 30.601 39 26.4793 39 22.75C39 19.3789 37.027 17.5368 35.1595 16.6523C34.0723 16.1373 33 17.0626 33 18.2656V35.125M37.125 35.125V44C37.125 45.1046 36.2296 46 35.125 46H35C33.8954 46 33 45.1046 33 44V35.125M37.125 35.125H33M21 16V22M21 22V26.1796C21 26.8483 21.3342 27.4728 21.8906 27.8437L22.3594 28.1563C22.9158 28.5272 23.25 29.1517 23.25 29.8204V44.125C23.25 45.1605 24.0895 46 25.125 46V46C26.1605 46 27 45.1605 27 44.125V29.8204C27 29.1517 27.3342 28.5272 27.8906 28.1563L28.3594 27.8437C28.9158 27.4728 29.25 26.8483 29.25 26.1796V22M21 22H25.125M25.125 22V16M25.125 22H29.25M29.25 22V16.75V16" stroke="#23242B" stroke-linecap="round"/>
</svg>
