<svg width="60" height="80" viewBox="0 0 60 80" fill="none" xmlns="http://www.w3.org/2000/svg">
<path fill-rule="evenodd" clip-rule="evenodd" d="M29.8396 0C41.2661 0 51.5334 6.40002 56.667 16.7579C61.1382 25.8527 61.1382 35.8737 56.5014 44.2947C52.2786 52.1263 33.7312 75.1158 32.9032 76.1263L29.8396 80L26.6932 76.2105L26.5999 76.0959C24.2095 73.1591 6.9318 51.9318 3.095 44.2105C-0.38263 37.2211 -0.962255 28.8 1.52176 21.0526C4.08858 13.2211 9.30502 6.90528 16.4259 3.28423C20.6487 1.09476 25.1199 0 29.8396 0Z" fill="#E5CDB7"/>
<path d="M27 17V26H18V32H27V41H33V32H42V26H33V17H27Z" stroke="#23242B"/>
</svg>
