<svg width="60" height="80" viewBox="0 0 60 80" fill="none" xmlns="http://www.w3.org/2000/svg">
<path fill-rule="evenodd" clip-rule="evenodd" d="M29.8396 0C41.2661 0 51.5334 6.40002 56.667 16.7579C61.1382 25.8527 61.1382 35.8737 56.5014 44.2947C52.2786 52.1263 33.7312 75.1158 32.9032 76.1263L29.8396 80L26.6932 76.2105L26.5999 76.0959C24.2095 73.1591 6.9318 51.9318 3.095 44.2105C-0.38263 37.2211 -0.962255 28.8 1.52176 21.0526C4.08858 13.2211 9.30502 6.90528 16.4259 3.28423C20.6487 1.09476 25.1199 0 29.8396 0Z" fill="#E5CDB7"/>
<path d="M19.6981 39.3898H40.566M19.6981 39.3898C19.6981 39.7772 19.6981 40.9436 19.6981 42.6949M19.6981 39.3898V35.8305M40.566 39.3898C40.566 38.4942 40.566 37.1757 40.566 35.8305M40.566 39.3898V42.6949M40.566 35.8305C40.566 33.8663 40.566 31.845 40.566 31C40.566 29.5763 40.0377 28.5424 39.7736 28.2034C38.9934 27.3947 37.6078 25.9404 36.6038 24.8386M40.566 35.8305H42.4151C42.9434 35.8305 44 36.2373 44 37.8644C44 39.4915 44 41.0847 44 41.678C44 42.0169 43.683 42.6949 42.4151 42.6949C41.1472 42.6949 40.6541 42.6949 40.566 42.6949M40.566 42.6949V42.9492C40.566 43.9661 39.8792 46 37.1321 46C34.3849 46 25.9497 46 22.0755 46C21.283 45.9153 19.6981 45.2373 19.6981 43.2034C19.6981 43.0289 19.6981 42.8593 19.6981 42.6949M19.6981 42.6949H17.8491C17.2327 42.6949 16 42.3898 16 41.1695C16 39.9492 16 38.1186 16 37.3559C16 36.8475 16.3698 35.8305 17.8491 35.8305C18.6943 35.8305 19.434 35.8305 19.6981 35.8305M19.6981 35.8305V31C19.6981 30.4068 19.8566 29.0169 20.4906 28.2034C20.9523 27.6108 22.2828 26.0832 23.3799 24.8386M28.4151 22.6102C28.1376 22.6102 27.871 22.6102 27.6226 22.6102C27.2409 22.6102 26.8879 22.6447 26.566 22.7022M28.4151 22.6102V20.5763C28.4151 20.1525 28.7321 19.3051 30 19.3051C31.2679 19.3051 31.5849 20.1525 31.5849 20.5763V22.6102M28.4151 22.6102C29.4477 22.6102 30.631 22.6102 31.5849 22.6102M31.5849 22.6102C32.1194 22.6102 32.582 22.6102 32.9057 22.6102C33.0471 22.6102 33.2294 22.6209 33.434 22.6472M33.434 22.6472C34.1207 22.7357 35.0587 23.0003 35.5472 23.6271C35.749 23.8862 36.1348 24.3239 36.6038 24.8386M33.434 22.6472L36.6038 17.0169C36.8679 16.678 37.6604 16 38.717 16C40.0377 16 41.6226 16.5085 40.8302 18.0339C40.1962 19.2542 37.7484 23.0788 36.6038 24.8386M26.566 22.7022C25.4626 22.8991 24.7255 23.3647 24.4528 23.6271C24.1658 23.9494 23.7891 24.3743 23.3799 24.8386M26.566 22.7022L23.6604 17.0169C23.4843 16.678 22.9208 16 22.0755 16C21.2302 16 20.6667 16 20.4906 16C19.6981 16.0847 18.3245 16.6102 19.1698 18.0339C20.0151 19.4576 22.3287 23.1636 23.3799 24.8386M23.1321 30.4915V34.8136C23.1321 35.1525 23.4491 35.8305 24.717 35.8305C25.9849 35.8305 32.6415 35.8305 35.8113 35.8305C36.2516 35.8305 37.1321 35.5763 37.1321 34.5593C37.1321 33.5424 37.1321 31.4237 37.1321 30.4915C37.1321 30.0678 36.8679 29.2203 35.8113 29.2203C34.7547 29.2203 27.9748 29.2203 24.717 29.2203C24.1887 29.2203 23.1321 29.4746 23.1321 30.4915Z" stroke="#23242B"/>
</svg>
