<svg width="60" height="80" viewBox="0 0 60 80" fill="none" xmlns="http://www.w3.org/2000/svg">
<path fill-rule="evenodd" clip-rule="evenodd" d="M29.8396 0C41.2661 0 51.5334 6.40002 56.667 16.7579C61.1382 25.8527 61.1382 35.8737 56.5014 44.2947C52.2786 52.1263 33.7312 75.1158 32.9032 76.1263L29.8396 80L26.6932 76.2105L26.5999 76.0959C24.2095 73.1591 6.9318 51.9318 3.095 44.2105C-0.38263 37.2211 -0.962255 28.8 1.52176 21.0526C4.08858 13.2211 9.30502 6.90528 16.4259 3.28423C20.6487 1.09476 25.1199 0 29.8396 0Z" fill="#E5CDB7"/>
<path d="M22 17L18 22.4V41.3C18 42.0161 18.281 42.7028 18.781 43.2092C19.2811 43.7155 19.9594 44 20.6667 44H39.3333C40.0406 44 40.7189 43.7155 41.219 43.2092C41.719 42.7028 42 42.0161 42 41.3V22.4L38 17H22Z" stroke="#23242B" stroke-linecap="round" stroke-linejoin="round"/>
<path d="M18 22.4004H42" stroke="#23242B" stroke-linecap="round" stroke-linejoin="round"/>
<path d="M35.3327 27.7998C35.3327 29.232 34.7708 30.6055 33.7706 31.6182C32.7704 32.6309 31.4138 33.1998 29.9993 33.1998C28.5849 33.1998 27.2283 32.6309 26.2281 31.6182C25.2279 30.6055 24.666 29.232 24.666 27.7998" stroke="#23242B" stroke-linecap="round" stroke-linejoin="round"/>
</svg>
