<svg width="60" height="80" viewBox="0 0 60 80" fill="none" xmlns="http://www.w3.org/2000/svg">
<path fill-rule="evenodd" clip-rule="evenodd" d="M29.8396 0C41.2661 0 51.5334 6.40002 56.667 16.7579C61.1382 25.8527 61.1382 35.8737 56.5014 44.2947C52.2786 52.1263 33.7312 75.1158 32.9032 76.1263L29.8396 80L26.6932 76.2105L26.5999 76.0959C24.2095 73.1591 6.9318 51.9318 3.095 44.2105C-0.38263 37.2211 -0.962255 28.8 1.52176 21.0526C4.08858 13.2211 9.30502 6.90528 16.4259 3.28423C20.6487 1.09476 25.1199 0 29.8396 0Z" fill="#E5CDB7"/>
<rect x="26.2394" y="28.0381" width="7.5217" height="4.92308" stroke="#23242B"/>
<rect x="17.1085" y="22.8076" width="3.60868" height="15.3846" rx="1" stroke="#23242B"/>
<rect x="39.2839" y="22.8076" width="3.60868" height="15.3846" rx="1" stroke="#23242B"/>
<rect x="34.0649" y="21.5" width="4.91302" height="18" rx="1" stroke="#23242B"/>
<rect x="21.0204" y="21.5" width="4.91302" height="18" rx="1" stroke="#23242B"/>
<path d="M16.8043 28.5381V28.0381H16.3043H15.5C14.9477 28.0381 14.5 28.4858 14.5 29.0381V31.9612C14.5 32.5135 14.9477 32.9612 15.5 32.9612H16.3043H16.8043V32.4612V28.5381Z" stroke="#23242B"/>
<path d="M43.6958 28.0381H43.1958V28.5381V32.4612V32.9612H43.6958H44.5001C45.0524 32.9612 45.5001 32.5135 45.5001 31.9612V29.0381C45.5001 28.4858 45.0524 28.0381 44.5001 28.0381H43.6958Z" stroke="#23242B"/>
</svg>
