<svg width="24" height="23" viewBox="0 0 24 23" fill="none" xmlns="http://www.w3.org/2000/svg">
<path d="M15.8256 7.07094L19.6887 3.20761M21.8962 1L19.6887 3.20761L21.8962 1ZM11.2891 11.6076C11.859 12.1699 
12.3121 12.8395 12.6222 13.5777C12.9323 14.3158 13.0933 15.1081 13.096 15.9087C13.0987 16.7094 12.943 17.5027 12.6378 18.2429C12.3327 18.9831 11.8841 19.6557 11.318 20.2219C10.7519 20.788 10.0793 21.2366 9.33913 21.5418C8.59893 21.8469 7.80567 22.0026 7.00505 22C6.20442 21.9973 5.41222 21.8362 4.67408 21.5261C3.93594 21.216 3.26644 20.7629 2.70411 20.193C1.59829 19.048 0.986398 17.5145 1.00023 15.9227C1.01406 14.3309 1.65251 12.8082 2.77806 11.6826C3.90361 10.557 5.42621 9.91857 7.01792 9.90474C8.60963 9.89091 10.1431 10.5028 11.288 11.6087L11.2891 11.6076ZM11.2891 11.6076L15.8256 7.07094L11.2891 11.6076ZM15.8256 7.07094L19.1368 10.3824L23 6.51904L19.6887 3.20761L15.8256 7.07094Z" stroke-width="1.5" stroke-linecap="round" stroke-linejoin="round"/>
</svg>
