<svg width="23" height="38" viewBox="0 0 23 38" fill="none" xmlns="http://www.w3.org/2000/svg">
<path d="M1.72024 22.0604L1.7203 22.0604C1.88418 22.1081 2.12087 22.0075 2.20718 21.8153C2.35105 21.437 2.4887 21.0711 2.6213 20.7186C2.95799 19.8236 3.26218 19.0149 3.55331 18.3084C3.95958 17.3224 4.35769 16.4908 4.81491 15.8599L4.81502 15.8597C5.17882 15.3582 5.583 14.9464 6.10391 14.6362C6.62345 14.3269 7.22982 14.136 7.97489 14.0337L8.66501 13.939L8.53397 14.6231L7.20929 21.5397C7.20924 21.54 7.20919 21.5403 7.20914 21.5405C7.18104 21.6922 7.23178 21.8607 7.32816 21.964L7.32877 21.9646C12.0394 27.0301 15.9921 32.1404 18.5001 37.2721C18.6002 37.4651 18.8625 37.5473 19.0287 37.4719C19.2035 37.3923 19.3351 37.1144 19.2659 36.8936C19.2649 36.8913 19.263 36.887 19.2597 36.8795L19.2584 36.8766C19.2513 36.8606 19.2358 36.8257 19.2221 36.786M1.72024 22.0604L21.9907 20.6472C21.9922 20.6475 21.9936 20.6479 21.995 20.6482M1.72024 22.0604C1.54966 22.0107 1.38647 21.783 1.40885 21.5603C1.44612 21.3297 1.48464 21.0685 1.52676 20.7829C1.63938 20.0194 1.77773 19.0814 1.98652 18.0864C2.27432 16.715 2.68496 15.2973 3.30832 14.187C5.25191 10.7253 8.8565 9.64448 11.0388 9.64439C11.0389 9.64439 11.039 9.64439 11.039 9.64439L12.8822 9.64535H12.8824C13.6915 9.64535 14.3693 10.0763 14.6413 10.6069C14.9217 11.1539 14.9706 11.6949 15.0278 12.3278C15.0348 12.4045 15.0418 12.4824 15.0494 12.562L15.0494 12.5621C15.0533 12.6028 15.0572 12.6437 15.0611 12.6845C15.1875 14.0173 15.3188 15.4022 16.801 16.443L16.8239 16.459L16.8484 16.4724C17.8731 17.0331 19.5834 18.1045 20.8851 18.9201C21.4728 19.2883 21.9772 19.6043 22.2978 19.7976C22.4571 19.9015 22.5512 20.1744 22.4714 20.3783M1.72024 22.0604L22.4714 20.3783M19.2221 36.786L19.695 36.6237L19.2223 36.7865C19.2222 36.7863 19.2222 36.7862 19.2221 36.786ZM19.2221 36.786C18.3111 34.1409 17.1222 31.7273 15.8939 29.3802C15.6208 28.8584 15.3452 28.339 15.0703 27.8207C14.1137 26.0175 13.1647 24.2286 12.3534 22.4034L12.2851 22.2499L12.3235 22.0862L13.3461 17.7245L13.5342 16.9221L14.159 17.4596C14.9925 18.1766 16.0153 18.7281 17.1017 19.1644L17.1018 19.1644C18.4688 19.7137 19.9008 20.0921 21.1367 20.4187C21.4355 20.4977 21.7228 20.5736 21.995 20.6482M21.995 20.6482C22.1611 20.6866 22.3936 20.576 22.4714 20.3783M21.995 20.6482L22.4714 20.3783M4.79751 31.4131L4.79754 31.413C5.88796 29.3599 6.55802 27.1295 6.46823 25.5264C6.4564 25.2885 6.65877 25.0654 6.83929 25.0415C6.97686 25.0242 7.1446 25.0981 7.23291 25.236C7.23292 25.236 7.23293 25.236 7.23294 25.2361C7.23298 25.2361 7.23302 25.2362 7.23305 25.2362L9.07654 28.1236L9.0765 28.1236L9.08017 28.1292C9.15195 28.2384 9.17806 28.3909 9.14401 28.5239C8.6518 30.3498 7.2928 32.1059 5.71302 33.7159C4.63888 34.8104 3.48575 35.7835 2.44286 36.5441C2.19273 36.7259 1.90315 36.9195 1.59652 37.1244C1.43357 37.2332 1.26579 37.3454 1.09656 37.4606C0.935265 37.5447 0.678467 37.4858 0.566476 37.3112L0.145573 37.5811L0.566467 37.3112C0.445946 37.1232 0.496877 36.812 0.655394 36.6782C2.17009 35.4488 3.70325 33.4728 4.79751 31.4131ZM10.1563 3.85043C10.1563 1.99084 11.6143 0.5 13.3436 0.5C15.073 0.5 16.531 1.99083 16.531 3.85043C16.531 5.71003 15.073 7.20086 13.3436 7.20086C11.6142 7.20086 10.1563 5.71003 10.1563 3.85043Z" stroke="#23242B"/>
</svg>
