<svg width="37" height="41" viewBox="0 0 37 41" fill="transparent" xmlns="http://www.w3.org/2000/svg">
<path fill="transparent" d="M32.0599 22.4008V25.3798M32.0599 25.3798L33.2832 23.8903M32.0599 25.3798V28.912M32.0599 28.912L30.3726 26.6565M32.0599 28.912V41" stroke="#23242B"/>
<path fill="transparent" d="M25.1039 12.631V17.2005M25.1039 17.2005L23.1723 14.9158M25.1039 17.2005V22.6185M25.1039 22.6185L27.7681 19.1588M25.1039 22.6185V41.0002" stroke="#23242B"/>
<path fill="transparent" d="M35.7663 22.4345C36.2142 24.8593 35.9921 26.6773 35.3219 27.8663C34.6706 29.0218 33.5565 29.6548 32.0039 29.6548C30.7781 29.6548 29.8109 29.3728 29.1537 28.6423C28.4875 27.9017 28.0429 26.5938 28.1243 24.3143C28.2058 22.0345 28.7157 19.7627 29.4538 18.0761C29.8235 17.2314 30.24 16.5574 30.6688 16.1026C31.101 15.6442 31.4973 15.457 31.837 15.457C32.664 15.457 33.4007 15.9089 34.0706 17.0422C34.7498 18.1911 35.3106 19.968 35.7663 22.4345Z" stroke="#23242B"/>
<path fill="transparent" d="M27.4901 23.2726C27.2261 23.4161 26.3127 23.7618 25.1138 23.7618V24.7618C26.4792 24.7618 27.5566 24.3745 27.9674 24.1514L27.4901 23.2726ZM25.1138 23.7618C24.3536 23.7618 22.7524 23.6288 21.3207 22.7517C19.9228 21.8953 18.6256 20.2944 18.4853 17.2182L17.4863 17.2638C17.6412 20.6586 19.1067 22.5681 20.7983 23.6044C22.456 24.62 24.2712 24.7618 25.1138 24.7618V23.7618ZM18.4853 17.2182C18.3407 14.0488 18.9317 10.0565 20.1354 6.87058C20.7373 5.27733 21.4813 3.91598 22.3378 2.96162C23.1923 2.00947 24.1217 1.5 25.1138 1.5V0.5C23.744 0.5 22.5645 1.21178 21.5935 2.29371C20.6245 3.37345 19.8264 4.85903 19.1999 6.51715C17.9468 9.83394 17.3357 13.9622 17.4863 17.2638L18.4853 17.2182ZM25.1138 1.5C26.0841 1.5 26.9705 2.04988 27.7788 3.04974C28.5868 4.04909 29.265 5.43868 29.8096 6.96258C30.8997 10.0127 31.4043 13.4557 31.4043 14.9994H32.4043C32.4043 13.3288 31.8756 9.77205 30.7513 6.62605C30.1888 5.05189 29.4646 3.54432 28.5565 2.42104C27.6488 1.29825 26.5054 0.5 25.1138 0.5V1.5Z" fill="#23242B"/>
<path fill="transparent" d="M5.20851 6.7379C5.20851 7.92356 4.26065 8.87425 3.10426 8.87425C1.94786 8.87425 1 7.92356 1 6.7379C1 5.55225 1.94786 4.60156 3.10426 4.60156C4.26065 4.60156 5.20851 5.55225 5.20851 6.7379Z" stroke="#23242B"/>
<path fill="transparent" d="M15.6255 6.7379C15.6255 7.92356 14.6776 8.87425 13.5212 8.87425C12.3649 8.87425 11.417 7.92356 11.417 6.7379C11.417 5.55225 12.3649 4.60156 13.5212 4.60156C14.6776 4.60156 15.6255 5.55225 15.6255 6.7379Z" stroke="#23242B"/>
<path fill="transparent" d="M8.5 6.17639V41.0002" stroke="#23242B"/>
<line x1="5.2998" y1="7.2959" x2="11.6998" y2="7.2959" stroke="#23242B"/>
</svg>
