<svg width="42" height="41" viewBox="0 0 42 41" fill="none" xmlns="http://www.w3.org/2000/svg">
<path d="M21.831 25.2403V28.0414H25.2659M21.831 25.2403L21.1662 24.5939M21.831 25.2403L19.8366 23.3011M39.4488 3.04696H14.518M14.518 3.04696V1H1V40H41V28.0414H36.1247M14.518 3.04696V8.54144M39.4488 8.54144H14.518M14.518 8.54144V14.0359M39.4488 14.0359H14.518M14.518 14.0359V18.1298L15.626 19.2072M39.4488 19.2072H15.626M15.626 19.2072L19.8366 23.3011M39.4488 24.5939H21.1662M21.1662 24.5939L19.8366 23.3011M36.1247 28.0414V1M36.1247 28.0414H30.5845M30.5845 28.0414V1M30.5845 28.0414H25.2659M25.2659 28.0414V1M19.8366 23.3011V1" stroke="white"/>
</svg>
