<svg width="42" height="42" viewBox="0 0 42 42" fill="none" xmlns="http://www.w3.org/2000/svg">
<path d="M38.1831 29.8112V41L1 36.2448V25.0559M38.1831 29.8112L41 25.0559M38.1831 29.8112L1 25.0559M41 25.0559V21.6993L38.1831 21.4196M41 25.0559L38.1831 24.7014M38.1831 21.4196V13.5874M38.1831 21.4196V24.7014M38.1831 13.5874L41 8.83217M38.1831 13.5874L1 8.83217M41 8.83217V5.47552L4.09859 1V4.07692M41 8.83217L4.09859 4.07692M4.09859 4.07692L1 8.83217M1 8.83217V20.021L4.09859 20.411M38.1831 24.7014L4.09859 20.411M4.09859 20.411L1 25.0559" stroke="white" stroke-linecap="round"/>
</svg>
