<svg width="41" height="29" viewBox="0 0 41 29" fill="none" xmlns="http://www.w3.org/2000/svg">
<path d="M24.3711 6.28125V11.0906" stroke="white" stroke-linecap="round"/>
<path d="M21.6719 6.28125V11.6771" stroke="white" stroke-linecap="round"/>
<path d="M3.375 19.6484L12.29 19.6484" stroke="white" stroke-linecap="round"/>
<path d="M19.0938 7.21875V10.9724" stroke="white" stroke-linecap="round"/>
<path d="M38.5 17H40V28H5C3.66667 27.8333 1 26.6 1 23C1 19.4 1 17.5 1 17H30M38.5 17V15H36.5M38.5 17H30M30 17V15H33.5M33.5 15C33.5 9.5 32.5 4 23.5 4C20.3 4 18.8333 4 18.5 4V1H24.5C33.5 1 36.5 6 36.5 15M33.5 15H36.5" stroke="white"/>
</svg>
