<svg width="41" height="43" viewBox="0 0 41 43" fill="none" xmlns="http://www.w3.org/2000/svg">
<path d="M0.5 13.4991L25.6376 0.564085L39.5 7.91279V21.003L14.359 33.4421L0.5 26.5851V13.4991Z" stroke="white"/>
<path d="M14.5 41.5L40 29V24.5L14.5 37M14.5 41.5L0.5 34.5V30L14.5 37M14.5 41.5V37" stroke="white" stroke-linecap="round"/>
<path d="M9.55859 14.0401C9.55859 13.609 9.83792 13.155 10.4828 12.7828C11.1231 12.4132 12.0575 12.1719 13.1612 12.1719C14.2648 12.1719 15.1992 12.4132 15.8395 12.7828C16.4844 13.1551 16.7638 13.609 16.7638 14.0401C16.7638 14.4712 16.4844 14.9251 15.8395 15.2974C15.1992 15.667 14.2648 15.9083 13.1612 15.9083C12.0576 15.9083 11.1231 15.667 10.4828 15.2974C9.83793 14.9251 9.55859 14.4712 9.55859 14.0401Z" stroke="white"/>
<path d="M16.7383 10.3174C16.7383 9.88632 17.0176 9.43239 17.6625 9.06012C18.3028 8.69051 19.2372 8.44922 20.3409 8.44922C21.4445 8.44922 22.3789 8.69051 23.0192 9.06012C23.6641 9.4324 23.9434 9.88633 23.9434 10.3174C23.9434 10.7485 23.6641 11.2024 23.0192 11.5747C22.3789 11.9443 21.4445 12.1856 20.3409 12.1856C19.2373 12.1856 18.3028 11.9443 17.6625 11.5747C17.0176 11.2024 16.7383 10.7485 16.7383 10.3174Z" stroke="white"/>
<path d="M23.918 6.59476C23.918 6.16367 24.1973 5.70974 24.8422 5.33746C25.4825 4.96785 26.4169 4.72656 27.5206 4.72656C28.6241 4.72656 29.5586 4.96785 30.1989 5.33746C30.8438 5.70974 31.1231 6.16368 31.1231 6.59476C31.1231 7.02584 30.8438 7.47977 30.1989 7.85205C29.5586 8.22166 28.6241 8.46295 27.5206 8.46295C26.417 8.46295 25.4825 8.22166 24.8422 7.85205C24.1973 7.47977 23.918 7.02584 23.918 6.59476Z" stroke="white"/>
</svg>
