<svg width="42" height="44" viewBox="0 0 42 44" fill="none" xmlns="http://www.w3.org/2000/svg">
<path d="M7.31641 24.1945V41.7027C7.31641 42.4778 7.94476 43.1061 8.71986 43.1061H39.5976C40.3727 43.1061 41.0011 42.4778 41.0011 41.7027V2.40345C41.0011 1.62835 40.3727 1 39.5976 1H8.71986C7.94476 1 7.31641 1.62835 7.31641 2.40345V10.3405M10.1233 24.1945V27.6671C10.1233 28.0549 10.4376 28.369 10.8249 28.369H37.4923C37.8798 28.369 38.1939 28.0549 38.1939 27.6671V4.50902C38.1939 4.12121 37.8798 3.8069 37.4923 3.8069H10.8249M37.4923 40.2992H10.8249C10.4376 40.2992 10.1233 39.9849 10.1233 39.5971V31.8057C10.1233 31.4181 10.4376 31.1041 10.8249 31.1041H37.4923C37.8798 31.1041 38.1939 31.4181 38.1939 31.8057V39.5971C38.1939 39.9849 37.8798 40.2992 37.4923 40.2992Z" stroke="white"/>
<path d="M10.1211 24.1923V27.6649C10.1211 28.0527 10.4354 28.3668 10.8227 28.3668H20.8274M10.8227 3.80469H37.4901C37.8776 3.80469 38.1917 4.11899 38.1917 4.5068V17.5819M20.8274 28.3668H37.4901C37.8776 28.3668 38.1917 28.0527 38.1917 27.6649V17.5819M20.8274 28.3668L16.6455 24.1849M38.1917 17.5819L34.0098 13.4" stroke="white"/>
<path d="M28.3684 24.1562H1.70127C1.45995 24.1559 1.23534 24.0318 1.1071 23.8272C0.979114 23.6231 0.964979 23.3672 1.06932 23.1498L10.1924 4.20226C10.3093 3.9594 10.5548 3.8052 10.8238 3.80469H37.4912C37.7325 3.8052 37.9569 3.92907 38.0849 4.13338C38.2131 4.33821 38.2275 4.59366 38.1229 4.81134L28.9998 23.7588C28.8829 24.0014 28.6375 24.1559 28.3684 24.1562Z" stroke="white"/>
<path d="M26.6061 21.3504H6.16985C5.92853 21.3504 5.70417 21.226 5.57619 21.0217C5.44795 20.8174 5.43356 20.5615 5.53815 20.3443L11.9587 7.0106C12.0756 6.76774 12.321 6.61354 12.5901 6.61328H33.0264C33.2677 6.61354 33.4918 6.73767 33.62 6.94224C33.7485 7.14655 33.7627 7.40226 33.6581 7.61968L27.2376 20.9534C27.1206 21.196 26.8752 21.3504 26.6061 21.3504Z" stroke="white"/>
</svg>
