<svg width="40" height="45" viewBox="0 0 40 45" fill="none" xmlns="http://www.w3.org/2000/svg">
<path d="M12.0756 1C10.1919 3.82179 11.1919 5.84364 11.9955 7.4673C12.7465 8.98733 13.29 10.0855 12.0756 11.9091C11.7956 12.3273 11.9101 12.8909 12.3265 13.1691" stroke="white"/>
<path d="M19.2435 1C17.3599 3.82179 18.3599 5.84364 19.1635 7.4673C19.9144 8.98733 20.458 10.0855 19.2435 11.9091C18.9636 12.3273 19.0781 12.8909 19.4944 13.1691" stroke="white"/>
<path d="M26.5716 1C24.688 3.82179 25.688 5.84364 26.4916 7.4673C27.2426 8.98733 27.7861 10.0855 26.5716 11.9091C26.2917 12.3273 26.4062 12.8909 26.8226 13.1691" stroke="white"/>
<path d="M4.54543 15.6406H35.4546C37.6855 15.6406 39.5 17.4566 39.5 19.6861V36.0497C39.5 38.2791 37.6856 40.0951 35.4546 40.0951H8.2584H4.54543C2.31448 40.0951 0.5 38.2791 0.5 36.0497V19.6861C0.5 17.4566 2.3144 15.6406 4.54543 15.6406Z" stroke="white"/>
<path d="M8.33984 40.5664L8.33984 44.2305" stroke="white"/>
<path d="M31.6602 40.5664L31.6602 44.2305" stroke="white"/>
<path d="M6.34375 18.832V36.8192" stroke="white"/>
<path d="M11.8398 18.832V36.8192" stroke="white"/>
<path d="M17.3359 18.832V36.8192" stroke="white"/>
<path d="M22.6641 18.832V36.8192" stroke="white"/>
<path d="M28.1602 18.832V36.8192" stroke="white"/>
<path d="M33.6562 18.832V36.8192" stroke="white"/>
</svg>
