<svg class="inner-front__bottom-decor" width="1920" height="167" viewBox="0 0 1920 167" fill="none" xmlns="http://www.w3.org/2000/svg">
    <mask id="mask0_908_4049" style="mask-type:alpha" maskUnits="userSpaceOnUse" x="0" y="0" width="1920" height="167">
    <rect width="1920" height="167" fill="#C4C4C4"/>
    </mask>
    <g mask="url(#mask0_908_4049)">
    <path d="M41.7631 156.213C28.5747 148.539 18.6835 139.769 10.9903 126.615C3.29708 114.557 0 100.306 0 83.8627C0 68.5158 3.29708 54.2651 10.9903 41.1106C18.6835 29.0522 28.5747 19.1863 41.7631 11.5129C54.9514 3.83941 69.2387 0.550781 85.7241 0.550781C98.9124 0.550781 111.002 2.74321 121.992 7.12804C132.982 11.5129 141.774 18.0901 149.468 26.8598L130.784 45.4954C118.695 33.4371 104.408 26.8598 87.9221 26.8598C76.9319 26.8598 67.0407 29.0522 58.2485 34.5333C49.4562 38.9181 42.8621 46.5916 37.3669 54.2651C31.8718 61.9385 29.6737 72.9006 29.6737 83.8627C29.6737 94.8248 31.8718 104.691 37.3669 113.46C42.8621 122.23 49.4562 128.807 58.2485 133.192C67.0407 137.577 76.9319 140.866 87.9221 140.866C105.507 140.866 119.794 134.288 130.784 122.23L150.567 140.866C142.873 149.635 134.081 156.213 123.091 160.597C112.101 164.982 100.011 167.175 86.8231 167.175C70.3377 166.078 54.9514 162.79 41.7631 156.213Z" fill="url(#paint0_linear_908_4049)" fill-opacity="0.3"/>
    <path d="M306.626 138.679V163.892H185.733V2.74902H304.428V27.9618H216.506V69.6178H294.537V93.7344H216.506V138.679H306.626Z" fill="url(#paint1_linear_908_4049)" fill-opacity="0.3"/>
    <path d="M490.165 2.74902V163.892H464.887L375.866 54.2709V163.892H346.192V2.74902H371.47L460.491 112.37V2.74902H490.165Z" fill="url(#paint2_linear_908_4049)" fill-opacity="0.3"/>
    <path d="M572.589 27.9618H518.736V2.74902H656.115V27.9618H602.262V163.892H572.589V27.9618Z" fill="url(#paint3_linear_908_4049)" fill-opacity="0.3"/>
    <path d="M791.297 163.892L758.326 116.755C757.227 116.755 755.029 116.755 751.732 116.755H715.464V163.892H685.79V2.74902H752.831C767.118 2.74902 779.207 4.94144 789.099 9.32628C798.99 13.7111 807.782 20.2884 813.277 29.0581C818.772 37.8277 822.069 47.6936 822.069 59.7519C822.069 71.8102 818.772 82.7723 813.277 91.542C807.782 100.312 798.99 106.889 788 111.274L825.366 163.892H791.297ZM780.306 36.7315C773.712 31.2505 763.821 27.9618 750.633 27.9618H715.464V92.6382H750.633C763.821 92.6382 773.712 89.3496 780.306 83.8685C786.901 78.3875 790.198 70.714 790.198 59.7519C790.198 49.886 786.901 42.2126 780.306 36.7315Z" fill="url(#paint4_linear_908_4049)" fill-opacity="0.3"/>
    <path d="M964.949 126.621H883.621L867.136 163.892H836.363L908.899 2.74902H938.573L1012.21 163.892H980.336L964.949 126.621ZM955.058 103.6L924.285 33.4429L893.513 103.6H955.058Z" fill="url(#paint5_linear_908_4049)" fill-opacity="0.3"/>
    <path d="M1039.68 2.74902H1069.35V138.679H1153.98V163.892H1038.58V2.74902H1039.68Z" fill="url(#paint6_linear_908_4049)" fill-opacity="0.3"/>
    <path d="M1357.3 10.4225C1367.19 14.8073 1375.98 21.3846 1381.47 30.1543C1386.97 38.9239 1390.27 48.7898 1390.27 60.8481C1390.27 72.9064 1386.97 82.7723 1381.47 91.542C1375.98 100.312 1368.29 106.889 1357.3 111.274C1346.31 115.659 1334.22 117.851 1321.03 117.851H1284.76V163.892H1255.09V2.74902H1322.13C1334.22 2.74902 1346.31 4.94144 1357.3 10.4225ZM1348.5 83.8685C1355.1 78.3875 1358.39 70.714 1358.39 59.7519C1358.39 49.886 1355.1 41.1164 1348.5 35.6353C1341.91 30.1543 1332.02 26.8656 1318.83 26.8656H1283.66V90.4458H1318.83C1332.02 92.6382 1341.91 89.3496 1348.5 83.8685Z" fill="url(#paint7_linear_908_4049)" fill-opacity="0.3"/>
    <path d="M1522.15 126.621H1440.82L1424.34 163.892H1393.56L1466.1 2.74902H1495.77L1569.41 163.892H1537.54L1522.15 126.621ZM1512.26 103.6L1481.49 33.4429L1450.71 103.6H1512.26Z" fill="url(#paint8_linear_908_4049)" fill-opacity="0.3"/>
    <path d="M1702.39 163.892L1669.42 116.755C1668.32 116.755 1666.12 116.755 1662.82 116.755H1626.56V163.892H1596.88V2.74902H1663.92C1678.21 2.74902 1690.3 4.94144 1700.19 9.32628C1710.08 13.7111 1718.87 20.2884 1724.37 29.0581C1729.86 37.8277 1733.16 47.6936 1733.16 59.7519C1733.16 71.8102 1729.86 82.7723 1724.37 91.542C1718.87 100.312 1710.08 106.889 1699.09 111.274L1736.46 163.892H1702.39ZM1691.4 36.7315C1684.8 31.2505 1674.91 27.9618 1661.72 27.9618H1626.56V92.6382H1661.72C1674.91 92.6382 1684.8 89.3496 1691.4 83.8685C1697.99 78.3875 1701.29 70.714 1701.29 59.7519C1701.29 49.886 1697.99 42.2126 1691.4 36.7315Z" fill="url(#paint9_linear_908_4049)" fill-opacity="0.3"/>
    <path d="M1826.59 97.0231L1801.31 123.332V164.988H1771.63V2.74902H1801.31V84.9648L1881.54 2.74902H1915.61L1847.47 75.0989L1920 163.892H1884.83L1826.59 97.0231Z" fill="url(#paint10_linear_908_4049)" fill-opacity="0.3"/>
    </g>
    <defs>
    <linearGradient id="paint0_linear_908_4049" x1="75.2833" y1="0.550781" x2="75.2833" y2="167.175" gradientUnits="userSpaceOnUse">
    <stop/>
    <stop offset="1" stop-opacity="0"/>
    </linearGradient>
    <linearGradient id="paint1_linear_908_4049" x1="246.18" y1="2.74902" x2="246.18" y2="163.892" gradientUnits="userSpaceOnUse">
    <stop/>
    <stop offset="1" stop-opacity="0"/>
    </linearGradient>
    <linearGradient id="paint2_linear_908_4049" x1="418.179" y1="2.74902" x2="418.179" y2="163.892" gradientUnits="userSpaceOnUse">
    <stop/>
    <stop offset="1" stop-opacity="0"/>
    </linearGradient>
    <linearGradient id="paint3_linear_908_4049" x1="587.425" y1="2.74902" x2="587.425" y2="163.892" gradientUnits="userSpaceOnUse">
    <stop/>
    <stop offset="1" stop-opacity="0"/>
    </linearGradient>
    <linearGradient id="paint4_linear_908_4049" x1="755.578" y1="2.74902" x2="755.578" y2="163.892" gradientUnits="userSpaceOnUse">
    <stop/>
    <stop offset="1" stop-opacity="0"/>
    </linearGradient>
    <linearGradient id="paint5_linear_908_4049" x1="924.285" y1="2.74902" x2="924.285" y2="163.892" gradientUnits="userSpaceOnUse">
    <stop/>
    <stop offset="1" stop-opacity="0"/>
    </linearGradient>
    <linearGradient id="paint6_linear_908_4049" x1="1096.28" y1="2.74902" x2="1096.28" y2="163.892" gradientUnits="userSpaceOnUse">
    <stop/>
    <stop offset="1" stop-opacity="0"/>
    </linearGradient>
    <linearGradient id="paint7_linear_908_4049" x1="1322.68" y1="2.74902" x2="1322.68" y2="163.892" gradientUnits="userSpaceOnUse">
    <stop/>
    <stop offset="1" stop-opacity="0"/>
    </linearGradient>
    <linearGradient id="paint8_linear_908_4049" x1="1481.49" y1="2.74902" x2="1481.49" y2="163.892" gradientUnits="userSpaceOnUse">
    <stop/>
    <stop offset="1" stop-opacity="0"/>
    </linearGradient>
    <linearGradient id="paint9_linear_908_4049" x1="1666.67" y1="2.74902" x2="1666.67" y2="163.892" gradientUnits="userSpaceOnUse">
    <stop/>
    <stop offset="1" stop-opacity="0"/>
    </linearGradient>
    <linearGradient id="paint10_linear_908_4049" x1="1845.82" y1="2.74902" x2="1845.82" y2="164.988" gradientUnits="userSpaceOnUse">
    <stop/>
    <stop offset="1" stop-opacity="0"/>
    </linearGradient>
    </defs>
    </svg>